<?xml version="1.0" encoding="utf-8"?>
<!-- Svg Vector Icons : http://www.onlinewebfonts.com/icon -->
<!DOCTYPE svg PUBLIC "-//W3C//DTD SVG 1.1//EN" "http://www.w3.org/Graphics/SVG/1.1/DTD/svg11.dtd">
<svg version="1.1" xmlns="http://www.w3.org/2000/svg" xmlns:xlink="http://www.w3.org/1999/xlink" x="0px" y="0px" viewBox="0 0 256 256" enable-background="new 0 0 256 256" xml:space="preserve">
<metadata> Svg Vector Icons : http://www.onlinewebfonts.com/icon </metadata>
<g><g><path fill="#000000" d="M76.4,126.5c2.8,12.8,17.6,26.3,28.4,38.5c10.7,12.2,22.8,30.5,34.1,32.5c12.4-16.7,11-41.5-4.5-59.1C119,120.9,94.5,116.3,76.4,126.5z M42.3,213.4c-12.1-16.9-18-25.9-17.7-39c-8.3,11.8-2.5,24.8,13.1,43.9c17.3,21.2,23,19.4,37.4,14.4C68.1,233.7,54.9,230.8,42.3,213.4z M233.5,50.3c-2.4-7.4-7.9-14-13-18.5c-2.6-2.3-5.3-4-8.4-4.8c-0.8-0.2-1.6-0.3-2.4-0.4s-1.7-0.1-2.6,0c-0.6,0-1.3,0.1-2,0.2c0-6,0-9.8,0-9.8c0-3.4-1.6-6.2-3.9-7h-2.6c-2.2,0.8-3.9,3.7-3.9,7v85.9c-4.1-2.7-9.3-4.3-15-4.3c-6.8,0-13,2.3-17.3,6c-4.4-5-8.9-9.9-13.7-14.7c2-1.8,3.3-4,3.6-6.4c0.5-0.8,0.8-1.8,0.8-2.9c0,0,0-23.3,0-40.7c1.3-1.4,3.4-3.1,5.7-3.1c2.1-0.1,4.4,1.1,7,4.2c2.3,3.2,4.9,8.2,3,17c0,0,1.6-0.9,2.7-4.1c0.3-0.8,0.6-1.7,0.7-2.6c0.1-0.5,0.2-1,0.2-1.5c0.1-0.5,0.1-1.1,0.1-1.6c0.1-2.2-0.3-4.6-1.1-6.8c-1.6-4.5-5.1-8.4-8.5-11.2c-1.7-1.4-3.4-2.4-5.4-2.9c-0.5-0.1-1-0.2-1.6-0.2c-0.6,0-1.1,0-1.7,0c-0.4,0-0.8,0.1-1.3,0.1c0-3.6,0-5.9,0-5.9c0-2.4-1.5-4.4-3.3-4.4c-1.9,0-3.3,2-3.3,4.4v51.9c-2.7-1.6-6.1-2.6-9.8-2.6c-2.9,0-5.6,0.6-7.9,1.6C89,40.3,52.3,34.3,42.7,60.4c-10.9,29.7,17.6,89.8,63.6,134.3c46,44.5,92.2,56.4,103.2,26.7c7.2-19.4-2.5-51.8-22.9-84.4c9.3-2.2,16.3-8.8,17.3-16.8c0.8-1.3,1.3-3,1.3-4.8c0,0,0-38.6,0-67.4c2-2.3,5.2-5.1,8.8-5.1c3.2-0.1,6.8,1.9,10.7,7c3.6,5.2,7.5,13.6,4.6,28.1c0,0,2.4-1.6,4.2-6.8c0.5-1.3,0.8-2.8,1.2-4.4c0.1-0.8,0.3-1.7,0.4-2.5c0.1-0.9,0.2-1.8,0.2-2.7C235.3,57.9,234.8,54,233.5,50.3z M196.5,206.1c-9.3,25.1-48.3,15.1-87.2-22.5C70.4,146.1,46.4,95.3,55.7,70.2c7.7-20.9,36.1-17.4,67.8,6c-1.4,1.8-2.2,3.9-2.2,6.1c0,6.5,7,11.8,15.7,11.8c2.2,0,4.4-0.4,6.3-1c5.4,5.2,10.5,10.7,15.2,16.3c-1.7,2.6-2.6,5.7-2.6,8.8c0,10.5,10.2,19.1,23,19.6C195,164.2,202.4,190.3,196.5,206.1z M192.5,239.3c-11.1,3.8-28.7-1.1-49.9-9.3c-11.1-4.4-22.4-10.4-33.3-18.2c0.1-0.1,0.3-0.2,0.4-0.3c-0.2-0.1-0.3-0.2-0.5-0.3c-1.7-1.1-3.4-2.1-4.9-3.1c-8.1-6.3-15.8-13.5-23-21.9c-31-37.2-47.4-80.4-42.4-107.3c-6.2,11-4.1,27.9,3,48.2c2.8,7.7,6.3,15.8,10.6,24.1c-6.5,9.6-13.2,18.2-20.1,27.7c0,0,2.4,8.1,8.4,17.3c1.5,2.3,2.8,4.7,4.9,7.2c1,1.2,2.6,3.5,3.8,4.7c1.2,1.3,2,2.4,3.3,3.8c9.1,9.9,12.6,10.5,19.9,14.2c0,0,0,0,0,0h0c0,0,0,0,0,0c0,0,0.1,0,0.1,0c0.2,0,0.4-0.1,0.7-0.1c0.7-0.1-2.2-0.8-1-0.6c3,0.4,9.5-1.5,13.3-2.8c6.1-2,13.3-5.1,19.5-8.5c13.5,10.4,27.5,18.3,40.8,23.5c13.2,5.2,23.4,7.7,31.3,8.4h9.3c13.2-1.4,16.6-9.2,18.2-12.3C204.6,234.6,191.9,240.2,192.5,239.3z"/></g></g>
</svg>